<svg width="20" height="20" viewBox="0 0 50 50" fill="none" xmlns="http://www.w3.org/2000/svg">
    <path fill="white" stroke="#000000" stroke-linecap="round" stroke-linejoin="round" stroke-miterlimit="10"
          stroke-width="2"
          d="M46.999,27.708v-5.5l-6.546-1.07c-0.388-1.55-0.996-3.007-1.798-4.342l3.815-5.437L38.58,7.472l-5.368,3.859c-1.338-0.81-2.805-1.428-4.366-1.817L27.706,3h-5.5l-1.06,6.492c-1.562,0.383-3.037,0.993-4.379,1.799l-5.352-3.824l-3.889,3.887l3.765,5.384c-0.814,1.347-1.433,2.82-1.826,4.392l-6.464,1.076v5.5l6.457,1.145c0.39,1.568,1.009,3.041,1.826,4.391l-3.816,5.337l3.887,3.891l5.391-3.776c1.346,0.808,2.817,1.423,4.379,1.808L22.206,47h5.5l1.156-6.513c1.554-0.394,3.022-1.013,4.355-1.824l5.428,3.809l3.888-3.891l-3.875-5.38c0.802-1.335,1.411-2.794,1.795-4.344L46.999,27.708z"/>
    <path fill="none" stroke="#000000" stroke-linecap="round" stroke-linejoin="round" stroke-miterlimit="10"
          stroke-width="2" d="M25 18A7 7 0 1 0 25 32A7 7 0 1 0 25 18Z"/>
</svg>
